<?xml version="1.0" encoding="UTF-8" standalone="no"?>
<svg
   version="1.1"
   id="Layer_1"
   x="0px"
   y="0px"
   viewBox="0 0 590.59086 159.13675"
   xml:space="preserve"
   width="611.9375"
   height="164.88867"
   xmlns:xlink="http://www.w3.org/1999/xlink"
   xmlns="http://www.w3.org/2000/svg"
   xmlns:svg="http://www.w3.org/2000/svg"><defs
   id="defs1"><linearGradient
     id="linearGradient1"><stop
       style="stop-color:#b2cc63;stop-opacity:1;"
       offset="0"
       id="stop1" /><stop
       style="stop-color:#00ffff;stop-opacity:1"
       offset="1"
       id="stop2" /></linearGradient><linearGradient
     xlink:href="#linearGradient1"
     id="linearGradient2"
     x1="-33.74691"
     y1="75.28157"
     x2="669.7464"
     y2="26.824474"
     gradientUnits="userSpaceOnUse" /></defs>
   
   
<path
   id="kiwi"
   class="prima"
   d="m 509.73032,0 c -38.79168,0 -68.9775,22.483468 -78.01042,57.264196 -0.038,0.054 -0.077,0.07506 -0.11499,0.130064 -0.164,0.877992 -0.35845,1.695058 -0.53345,2.55605 -0.289,1.290992 -0.58432,2.578951 -0.81432,3.901935 -8.03992,35.380715 -24.3541,53.234085 -24.3541,53.234085 -9.381,12.93684 -21.98787,18.76321 -38.48779,18.76321 -30.72576,0 -51.10404,-25.22758 -51.10404,-56.27834 0,-31.048752 17.14336,-56.282114 51.10404,-56.282114 10.53992,0 19.65958,2.725705 27.83758,8.659657 L 403.00392,7.543741 C 392.112,2.482782 380.04517,0.00377 367.41525,0.00377 c -34.56968,0 -60.9105,18.557082 -72.20842,46.89485 C 283.30499,18.071852 255.3835,0.00377 220.58374,0.00377 c -38.79068,0 -68.97274,22.481813 -78.00666,57.258541 -0.04,0.054 -0.0787,0.07673 -0.11875,0.135719 -0.17,0.913992 -0.37219,1.762078 -0.55419,2.65407 -0.277,1.239992 -0.56016,2.478144 -0.78416,3.751136 -8.03592,35.411714 -24.35599,53.284974 -24.35599,53.284974 -9.38192,12.93692 -21.995437,18.76322 -38.495324,18.76322 -30.72875,0 -51.104035,-25.22947 -51.104035,-56.28023 0,-31.048752 17.146315,-56.280229 51.104035,-56.280229 10.281927,0 19.208037,2.595386 27.224954,8.222338 L 113.19947,7.236487 C 102.48355,2.386526 90.647583,0.00377 78.268666,0.00377 31.693046,0.00377 0,33.642453 0,79.57308 c 0,46.57461 31.374046,79.56178 78.268666,79.56178 21.999844,0 42.699164,-7.43707 57.251004,-24.25609 0,0 11.30728,-15.308 21.9432,-3.48158 0.119,0.143 0.24381,0.27913 0.36381,0.42413 0.30501,0.35592 0.60845,0.6478 0.91045,1.05182 0.381,0.508 0.72525,0.8327 1.04428,1.05371 14.51392,15.86992 35.86238,25.2099 60.80422,25.2099 34.72368,0 62.58765,-17.99175 74.53449,-46.70259 11.20092,28.46884 37.44745,46.70259 72.29513,46.70259 21.99584,0 42.69916,-7.43886 57.251,-24.25798 0,0 11.31113,-15.31936 21.94697,-3.47404 0.109,0.134 0.22831,0.26274 0.3393,0.39774 0.31001,0.36192 0.6213,0.65968 0.9293,1.07067 0.38,0.508 0.72431,0.8327 1.04429,1.05371 14.51392,15.86992 35.86445,25.2099 60.80421,25.2099 46.57568,0 80.86054,-32.34306 80.86054,-79.56367 C 590.58986,32.349461 556.306,0.001885 509.73032,0.001885 Z M 220.57997,23.289086 c 32.66976,0 53.68836,24.586485 53.68836,56.280224 0,31.69576 -21.0186,56.28023 -53.68836,56.28023 -32.66276,0 -53.68836,-24.58447 -53.68836,-56.28023 0,-31.693739 21.0256,-56.280224 53.68836,-56.280224 z m 289.15035,0 c 32.66976,0 53.69402,24.586485 53.69402,56.280224 0,31.69576 -21.02526,56.28023 -53.69402,56.28023 -32.66568,0 -53.69402,-24.58447 -53.69402,-56.28023 0,-31.693739 21.02834,-56.280224 53.69402,-56.280224 z M 217.03053,57.54506 c -4.354,0 -7.88304,3.530079 -7.88304,7.883039 0,4.354968 3.52904,7.888695 7.88304,7.888695 4.35392,0 7.88869,-3.534727 7.88869,-7.888695 0,-4.35296 -3.53477,-7.883039 -7.88869,-7.883039 z m 36.05049,0 c -4.353,0 -7.88304,3.530079 -7.88304,7.883039 0,4.354968 3.52904,7.888695 7.88304,7.888695 4.35392,0 7.88492,-3.534727 7.88492,-7.888695 0,-4.35296 -3.532,-7.883039 -7.88492,-7.883039 z m 226.05964,0 c -4.355,0 -7.88492,3.530079 -7.88492,7.883039 0,4.354968 3.53092,7.888695 7.88492,7.888695 4.353,0 7.88304,-3.534727 7.88304,-7.888695 0,-4.35296 -3.53004,-7.883039 -7.88304,-7.883039 z m 36.05049,0 c -4.354,0 -7.88493,3.530079 -7.88493,7.883039 0,4.354968 3.53093,7.888695 7.88493,7.888695 4.35392,0 7.88492,-3.534727 7.88492,-7.888695 0,-4.35296 -3.531,-7.883039 -7.88492,-7.883039 z M 210.63286,93.10168 c 0,0 2.44058,18.7009 17.4852,25.62082 15.04184,6.91792 23.58503,-20.74058 23.58503,-20.74058 z m 266.71894,0 c 0,0 2.43798,18.7009 17.48142,25.62082 15.04592,6.91792 23.58692,-20.74058 23.58692,-20.74058 z"
   style="fill:url(#linearGradient2);fill-opacity:1" />

</svg>
